<svg xmlns="http://www.w3.org/2000/svg" width="520" height="160" viewBox="0 0 520 160" role="img" aria-label="Gate Card">
  <g transform="translate(20,53) scale(0.86)">
    <line x1="2" y1="58" x2="138" y2="58" stroke="#1e3a8a" stroke-width="2" stroke-linecap="round" opacity="0.35"/>

    <g clip-path="url(#gate-clip)">
      <defs>
        <clipPath id="gate-clip"><rect x="11" y="2" width="118" height="60"/></clipPath>
      </defs>
      <g fill="#2563eb" stroke="#2563eb" stroke-width="3.2" stroke-linejoin="round">
        <rect x="14" y="14" width="112" height="5" rx="2.5"/>
        <rect x="14" y="41" width="112" height="5" rx="2.5"/>
        <rect x="18" y="18" width="4" height="27" rx="2"/>
        <rect x="31.5" y="18" width="4" height="27" rx="2"/>
        <rect x="45" y="18" width="4" height="27" rx="2"/>
        <rect x="58.5" y="18" width="4" height="27" rx="2"/>
        <rect x="72" y="18" width="4" height="27" rx="2"/>
        <rect x="85.5" y="18" width="4" height="27" rx="2"/>
        <rect x="99" y="18" width="4" height="27" rx="2"/>
        <rect x="112.5" y="18" width="4" height="27" rx="2"/>
      </g>
      <g fill="#dbeafe">
        <rect x="14" y="14" width="112" height="5" rx="2.5"/>
        <rect x="14" y="41" width="112" height="5" rx="2.5"/>
        <rect x="18" y="18" width="4" height="27" rx="2"/>
        <rect x="31.5" y="18" width="4" height="27" rx="2"/>
        <rect x="45" y="18" width="4" height="27" rx="2"/>
        <rect x="58.5" y="18" width="4" height="27" rx="2"/>
        <rect x="72" y="18" width="4" height="27" rx="2"/>
        <rect x="85.5" y="18" width="4" height="27" rx="2"/>
        <rect x="99" y="18" width="4" height="27" rx="2"/>
        <rect x="112.5" y="18" width="4" height="27" rx="2"/>
      </g>
      <g>
        <circle cx="40" cy="52" r="4.5" fill="#dbeafe" stroke="#2563eb" stroke-width="1.6"/>
        <line x1="35.5" y1="52" x2="44.5" y2="52" stroke="#ffffff" stroke-width="1.6"/>
        <line x1="40" y1="47.5" x2="40" y2="56.5" stroke="#ffffff" stroke-width="1.6"/>
        <circle cx="100" cy="52" r="4.5" fill="#dbeafe" stroke="#2563eb" stroke-width="1.6"/>
        <line x1="95.5" y1="52" x2="104.5" y2="52" stroke="#ffffff" stroke-width="1.6"/>
        <line x1="100" y1="47.5" x2="100" y2="56.5" stroke="#ffffff" stroke-width="1.6"/>
      </g>
    </g>

    <g fill="#1e3a8a" opacity="0.85">
      <rect x="2" y="10" width="9" height="48" rx="2"/>
      <rect x="0" y="6" width="13" height="6" rx="2"/>
      <rect x="129" y="10" width="9" height="48" rx="2"/>
      <rect x="127" y="6" width="13" height="6" rx="2"/>
    </g>

    <g transform="translate(70 34) rotate(90) scale(0.6) translate(-70 -34)">
      <circle cx="61" cy="34" r="6" fill="#22c55e"/>
      <rect x="65.5" y="32.3" width="16" height="3.4" rx="1.7" fill="#22c55e"/>
      <rect x="77.5" y="34.5" width="3.2" height="5.4" rx="1" fill="#22c55e"/>
      <rect x="72.3" y="34.5" width="3.2" height="4.4" rx="1" fill="#22c55e"/>
      <circle cx="61" cy="34" r="2.2" fill="#ffffff"/>
    </g>
  </g>

  <text x="154" y="77" font-family="Arial, Helvetica, sans-serif" font-size="48" font-weight="900" fill="#1e3a8a">Gate</text>
  <text x="154" y="121" font-family="Arial, Helvetica, sans-serif" font-size="48" font-weight="900" fill="#2563eb">Card</text>
</svg>
